<svg width="40" height="40" viewBox="0 0 40 40" fill="none" xmlns="http://www.w3.org/2000/svg">
<circle cx="20" cy="20" r="20" fill="#136B55"/>
<path d="M21.924 30H18.076C17.8195 30 17.5972 29.9167 17.409 29.75C17.2209 29.5833 17.1098 29.375 17.0756 29.125L16.7677 26.8C16.5454 26.7167 16.3361 26.6167 16.1397 26.5C15.9427 26.3833 15.7502 26.2583 15.562 26.125L13.3302 27.025C13.0908 27.1083 12.8514 27.1167 12.6119 27.05C12.3725 26.9833 12.1844 26.8417 12.0476 26.625L10.1493 23.4C10.0124 23.1833 9.96968 22.95 10.021 22.7C10.0723 22.45 10.2006 22.25 10.4058 22.1L12.3298 20.675C12.3127 20.5583 12.3041 20.4457 12.3041 20.337V19.662C12.3041 19.554 12.3127 19.4417 12.3298 19.325L10.4058 17.9C10.2006 17.75 10.0723 17.55 10.021 17.3C9.96968 17.05 10.0124 16.8167 10.1493 16.6L12.0476 13.375C12.1673 13.1417 12.351 12.9957 12.5986 12.937C12.8469 12.879 13.0908 12.8917 13.3302 12.975L15.562 13.875C15.7502 13.7417 15.9468 13.6167 16.1521 13.5C16.3573 13.3833 16.5625 13.2833 16.7677 13.2L17.0756 10.875C17.1098 10.625 17.2209 10.4167 17.409 10.25C17.5972 10.0833 17.8195 10 18.076 10H21.924C22.1805 10 22.4028 10.0833 22.591 10.25C22.7791 10.4167 22.8902 10.625 22.9244 10.875L23.2323 13.2C23.4546 13.2833 23.6643 13.3833 23.8613 13.5C24.0576 13.6167 24.2498 13.7417 24.438 13.875L26.6698 12.975C26.9092 12.8917 27.1486 12.8833 27.3881 12.95C27.6275 13.0167 27.8156 13.1583 27.9524 13.375L29.8507 16.6C29.9876 16.8167 30.0303 17.05 29.979 17.3C29.9277 17.55 29.7994 17.75 29.5942 17.9L27.6702 19.325C27.6873 19.4417 27.6959 19.554 27.6959 19.662V20.337C27.6959 20.4457 27.6788 20.5583 27.6446 20.675L29.5686 22.1C29.7738 22.25 29.9021 22.45 29.9534 22.7C30.0047 22.95 29.9619 23.1833 29.8251 23.4L27.9268 26.6C27.79 26.8167 27.5977 26.9627 27.3501 27.038C27.1018 27.1127 26.8579 27.1083 26.6185 27.025L24.438 26.125C24.2498 26.2583 24.0532 26.3833 23.8479 26.5C23.6427 26.6167 23.4375 26.7167 23.2323 26.8L22.9244 29.125C22.8902 29.375 22.7791 29.5833 22.591 29.75C22.4028 29.9167 22.1805 30 21.924 30ZM20.0513 23.5C21.0432 23.5 21.8898 23.1583 22.591 22.475C23.2921 21.7917 23.6427 20.9667 23.6427 20C23.6427 19.0333 23.2921 18.2083 22.591 17.525C21.8898 16.8417 21.0432 16.5 20.0513 16.5C19.0423 16.5 18.1913 16.8417 17.4983 17.525C16.806 18.2083 16.4599 19.0333 16.4599 20C16.4599 20.9667 16.806 21.7917 17.4983 22.475C18.1913 23.1583 19.0423 23.5 20.0513 23.5Z" fill="#A3F2D7"/>
</svg>
