<svg width="40" height="40" viewBox="0 0 40 40" fill="none" xmlns="http://www.w3.org/2000/svg">
<circle cx="20" cy="20" r="20" fill="#A3F2D7"/>
<path d="M12.5 30C11.8125 30 11.2242 29.7764 10.735 29.3291C10.245 28.8811 10 28.3429 10 27.7143V17.4286C10 17.0667 10.0887 16.7238 10.2662 16.4C10.4429 16.0762 10.6875 15.8095 11 15.6L18.5 10.4571C18.7292 10.3048 18.9688 10.1905 19.2188 10.1143C19.4688 10.0381 19.7292 10 20 10C20.2708 10 20.5312 10.0381 20.7812 10.1143C21.0312 10.1905 21.2708 10.3048 21.5 10.4571L29 15.6C29.3125 15.8095 29.5575 16.0762 29.735 16.4C29.9117 16.7238 30 17.0667 30 17.4286V27.7143C30 28.3429 29.7554 28.8811 29.2663 29.3291C28.7763 29.7764 28.1875 30 27.5 30H22.5V22H17.5V30H12.5Z" fill="#136B55"/>
</svg>
