<svg width="40" height="40" viewBox="0 0 40 40" fill="none" xmlns="http://www.w3.org/2000/svg">
<circle cx="20" cy="20" r="20" fill="#136B55"/>
<path d="M23.6389 20.5278L19.4722 16.3333L22.5556 13.2778L21.75 12.4722L16.4444 17.7778C16.2222 18 15.963 18.1111 15.6667 18.1111C15.3704 18.1111 15.1111 18 14.8889 17.7778C14.6667 17.5556 14.5556 17.2917 14.5556 16.9861C14.5556 16.6806 14.6667 16.4167 14.8889 16.1944L20.1667 10.9167C20.6111 10.4722 21.1343 10.25 21.7361 10.25C22.338 10.25 22.8611 10.4722 23.3056 10.9167L24.1111 11.7222L25.5 10.3333C25.7222 10.1111 25.9861 10 26.2917 10C26.5972 10 26.8611 10.1111 27.0833 10.3333L29.6667 12.9167C29.8889 13.1389 30 13.4028 30 13.7083C30 14.0139 29.8889 14.2778 29.6667 14.5L23.6389 20.5278ZM11.1111 30C10.7963 30 10.5324 29.8935 10.3194 29.6806C10.1065 29.4676 10 29.2037 10 28.8889V26.75C10 26.4537 10.0556 26.1713 10.1667 25.9028C10.2778 25.6343 10.4352 25.3981 10.6389 25.1944L17.8889 17.9167L22.0833 22.0833L14.8056 29.3611C14.6019 29.5648 14.3657 29.7222 14.0972 29.8333C13.8287 29.9444 13.5463 30 13.25 30H11.1111Z" fill="#A3F2D7"/>
</svg>
