<svg width="40" height="40" viewBox="0 0 40 40" fill="none" xmlns="http://www.w3.org/2000/svg">
<circle cx="20" cy="20" r="20" fill="#A3F2D7"/>
<path d="M12.2222 30C11.6111 30 11.0878 29.8043 10.6522 29.413C10.2174 29.021 10 28.55 10 28V14C10 13.45 10.2174 12.9793 10.6522 12.588C11.0878 12.196 11.6111 12 12.2222 12H13.3333V10.975C13.3333 10.6917 13.4396 10.4583 13.6522 10.275C13.8656 10.0917 14.1296 10 14.4444 10C14.7593 10 15.0233 10.0957 15.2367 10.287C15.4493 10.479 15.5556 10.7167 15.5556 11V12H24.4444V10.975C24.4444 10.6917 24.5511 10.4583 24.7644 10.275C24.977 10.0917 25.2407 10 25.5556 10C25.8704 10 26.1341 10.0957 26.3467 10.287C26.56 10.479 26.6667 10.7167 26.6667 11V12H27.7778C28.3889 12 28.9122 12.196 29.3478 12.588C29.7826 12.9793 30 13.45 30 14V28C30 28.55 29.7826 29.021 29.3478 29.413C28.9122 29.8043 28.3889 30 27.7778 30H12.2222ZM12.2222 28H27.7778V18H12.2222V28Z" fill="#136B55"/>
</svg>
