<svg width="40" height="40" viewBox="0 0 40 40" fill="none" xmlns="http://www.w3.org/2000/svg">
<circle cx="20" cy="20" r="20" fill="#136B55"/>
<path d="M19 26C17.3333 26 15.9167 25.4167 14.75 24.25C13.5833 23.0833 13 21.6667 13 20C13 19.8167 13.0083 19.6333 13.025 19.45C13.0417 19.2667 13.0667 19.0833 13.1 18.9C13 18.9333 12.9 18.9583 12.8 18.975C12.7 18.9917 12.6 19 12.5 19C11.8 19 11.2083 18.7583 10.725 18.275C10.2417 17.7917 10 17.2 10 16.5C10 15.8 10.2293 15.2083 10.688 14.725C11.146 14.2417 11.725 14 12.425 14C12.975 14 13.4707 14.1543 13.912 14.463C14.354 14.771 14.6667 15.1667 14.85 15.65C15.4 15.15 16.0293 14.75 16.738 14.45C17.446 14.15 18.2 14 19 14H29C29.2833 14 29.5207 14.0957 29.712 14.287C29.904 14.479 30 14.7167 30 15V17C30 17.2833 29.904 17.5207 29.712 17.712C29.5207 17.904 29.2833 18 29 18H25V20C25 21.6667 24.4167 23.0833 23.25 24.25C22.0833 25.4167 20.6667 26 19 26ZM12.5 17.5C12.7833 17.5 13.021 17.404 13.213 17.212C13.4043 17.0207 13.5 16.7833 13.5 16.5C13.5 16.2167 13.4043 15.979 13.213 15.787C13.021 15.5957 12.7833 15.5 12.5 15.5C12.2167 15.5 11.9793 15.5957 11.788 15.787C11.596 15.979 11.5 16.2167 11.5 16.5C11.5 16.7833 11.596 17.0207 11.788 17.212C11.9793 17.404 12.2167 17.5 12.5 17.5ZM19 22C19.55 22 20.021 21.804 20.413 21.412C20.8043 21.0207 21 20.55 21 20C21 19.45 20.8043 18.979 20.413 18.587C20.021 18.1957 19.55 18 19 18C18.45 18 17.9793 18.1957 17.588 18.587C17.196 18.979 17 19.45 17 20C17 20.55 17.196 21.0207 17.588 21.412C17.9793 21.804 18.45 22 19 22Z" fill="#A3F2D7"/>
</svg>
