<svg width="31" height="30" viewBox="0 0 31 30" fill="none" xmlns="http://www.w3.org/2000/svg">
<g id="Google">
<path id="Vector" d="M27.4031 12.5519H26.3927V12.5H15.1038V17.5H22.1926C21.1584 20.4106 18.3795 22.5 15.1038 22.5C10.9476 22.5 7.57785 19.1419 7.57785 15C7.57785 10.8581 10.9476 7.5 15.1038 7.5C17.0223 7.5 18.7677 8.22125 20.0966 9.39937L23.6445 5.86375C21.4043 3.78312 18.4077 2.5 15.1038 2.5C8.17679 2.5 2.56055 8.09688 2.56055 15C2.56055 21.9031 8.17679 27.5 15.1038 27.5C22.0308 27.5 27.647 21.9031 27.647 15C27.647 14.1619 27.5605 13.3438 27.4031 12.5519Z" fill="#FFC107"/>
<path id="Vector_2" d="M4.00677 9.18188L8.12786 12.1938C9.24296 9.4425 11.9435 7.5 15.1038 7.5C17.0223 7.5 18.7677 8.22125 20.0966 9.39937L23.6445 5.86375C21.4043 3.78312 18.4077 2.5 15.1038 2.5C10.2859 2.5 6.10777 5.21062 4.00677 9.18188Z" fill="#FF3D00"/>
<path id="Vector_3" d="M15.1038 27.5C18.3437 27.5 21.2876 26.2644 23.5134 24.255L19.6313 20.9813C18.3719 21.9319 16.8065 22.5 15.1038 22.5C11.8413 22.5 9.07109 20.4269 8.02749 17.5338L3.93713 20.6744C6.01304 24.7225 10.2288 27.5 15.1038 27.5Z" fill="#4CAF50"/>
<path id="Vector_4" d="M27.403 12.5519H26.3927V12.5H15.1038V17.5H22.1926C21.6959 18.8981 20.7934 20.1037 19.6294 20.9819L19.6312 20.9806L23.5134 24.2544C23.2387 24.5031 27.647 21.25 27.647 15C27.647 14.1619 27.5605 13.3438 27.403 12.5519Z" fill="#1976D2"/>
</g>
</svg>
